<svg width="296" height="66" viewBox="0 0 296 66" fill="none" xmlns="http://www.w3.org/2000/svg">
<path d="M98.2124 57.5V32.0455H108.255C110.186 32.0455 111.83 32.4142 113.189 33.1516C114.548 33.8808 115.584 34.8958 116.297 36.1967C117.017 37.4893 117.378 38.9808 117.378 40.6712C117.378 42.3615 117.013 43.853 116.284 45.1456C115.555 46.4382 114.498 47.445 113.115 48.1658C111.739 48.8867 110.074 49.2472 108.118 49.2472H101.717V44.9343H107.248C108.284 44.9343 109.137 44.7562 109.809 44.3999C110.488 44.0353 110.993 43.534 111.325 42.896C111.665 42.2496 111.835 41.508 111.835 40.6712C111.835 39.826 111.665 39.0885 111.325 38.4588C110.993 37.8208 110.488 37.3278 109.809 36.9798C109.129 36.6235 108.267 36.4453 107.223 36.4453H103.594V57.5H98.2124ZM120.774 57.5V38.4091H125.907V41.7401H126.106C126.454 40.5552 127.038 39.6603 127.859 39.0554C128.679 38.4422 129.623 38.1357 130.692 38.1357C130.958 38.1357 131.243 38.1522 131.55 38.1854C131.857 38.2185 132.126 38.2641 132.358 38.3221V43.0202C132.109 42.9457 131.765 42.8794 131.326 42.8214C130.887 42.7634 130.485 42.7344 130.121 42.7344C129.342 42.7344 128.646 42.9042 128.033 43.244C127.428 43.5754 126.947 44.0394 126.591 44.636C126.243 45.2326 126.069 45.9203 126.069 46.6992V57.5H120.774ZM142.832 57.8729C140.902 57.8729 139.232 57.4627 137.824 56.6424C136.423 55.8138 135.342 54.6621 134.58 53.1871C133.817 51.704 133.436 49.9846 133.436 48.0291C133.436 46.0571 133.817 44.3336 134.58 42.8587C135.342 41.3755 136.423 40.2237 137.824 39.4034C139.232 38.5748 140.902 38.1605 142.832 38.1605C144.763 38.1605 146.429 38.5748 147.829 39.4034C149.237 40.2237 150.323 41.3755 151.085 42.8587C151.848 44.3336 152.229 46.0571 152.229 48.0291C152.229 49.9846 151.848 51.704 151.085 53.1871C150.323 54.6621 149.237 55.8138 147.829 56.6424C146.429 57.4627 144.763 57.8729 142.832 57.8729ZM142.857 53.7713C143.736 53.7713 144.469 53.5227 145.057 53.0256C145.645 52.5201 146.089 51.8324 146.387 50.9624C146.694 50.0923 146.847 49.1022 146.847 47.9918C146.847 46.8815 146.694 45.8913 146.387 45.0213C146.089 44.1513 145.645 43.4635 145.057 42.9581C144.469 42.4527 143.736 42.1999 142.857 42.1999C141.971 42.1999 141.225 42.4527 140.62 42.9581C140.023 43.4635 139.572 44.1513 139.265 45.0213C138.967 45.8913 138.818 46.8815 138.818 47.9918C138.818 49.1022 138.967 50.0923 139.265 50.9624C139.572 51.8324 140.023 52.5201 140.62 53.0256C141.225 53.5227 141.971 53.7713 142.857 53.7713ZM155.672 64.6591V38.4091H160.892V41.6158H161.128C161.36 41.102 161.695 40.58 162.135 40.0497C162.582 39.5111 163.162 39.0637 163.875 38.7074C164.596 38.3428 165.49 38.1605 166.559 38.1605C167.951 38.1605 169.236 38.5251 170.412 39.2543C171.589 39.9751 172.529 41.0647 173.234 42.5231C173.938 43.9731 174.29 45.7919 174.29 47.9794C174.29 50.1089 173.946 51.907 173.259 53.3736C172.579 54.8319 171.651 55.9381 170.474 56.6921C169.306 57.4379 167.997 57.8107 166.547 57.8107C165.519 57.8107 164.645 57.6409 163.924 57.3011C163.212 56.9614 162.628 56.5347 162.172 56.021C161.716 55.4989 161.368 54.9728 161.128 54.4425H160.966V64.6591H155.672ZM160.854 47.9545C160.854 49.0897 161.012 50.0799 161.327 50.9251C161.642 51.7702 162.097 52.429 162.694 52.9013C163.29 53.3653 164.016 53.5973 164.869 53.5973C165.731 53.5973 166.46 53.3612 167.056 52.8888C167.653 52.4083 168.105 51.7454 168.411 50.9002C168.726 50.0468 168.884 49.0649 168.884 47.9545C168.884 46.8525 168.73 45.883 168.424 45.0462C168.117 44.2093 167.665 43.5547 167.069 43.0824C166.472 42.6101 165.739 42.3739 164.869 42.3739C164.007 42.3739 163.278 42.6018 162.681 43.0575C162.093 43.5133 161.642 44.1596 161.327 44.9964C161.012 45.8333 160.854 46.8194 160.854 47.9545ZM186.52 57.8729C184.556 57.8729 182.866 57.4751 181.449 56.6797C180.041 55.8759 178.955 54.7408 178.193 53.2741C177.431 51.7992 177.049 50.055 177.049 48.0415C177.049 46.0778 177.431 44.3543 178.193 42.8711C178.955 41.3879 180.028 40.232 181.412 39.4034C182.804 38.5748 184.436 38.1605 186.309 38.1605C187.568 38.1605 188.741 38.3635 189.826 38.7695C190.92 39.1673 191.873 39.768 192.685 40.5717C193.505 41.3755 194.143 42.3864 194.599 43.6044C195.055 44.8142 195.283 46.2311 195.283 47.8551V49.3093H179.162V46.0281H190.299C190.299 45.2657 190.133 44.5904 189.801 44.0021C189.47 43.4138 189.01 42.954 188.422 42.6225C187.842 42.2828 187.167 42.1129 186.396 42.1129C185.592 42.1129 184.88 42.2994 184.258 42.6722C183.645 43.0368 183.164 43.5298 182.816 44.1513C182.468 44.7644 182.29 45.448 182.282 46.2021V49.3217C182.282 50.2663 182.456 51.0825 182.804 51.7702C183.16 52.458 183.662 52.9883 184.308 53.3612C184.954 53.734 185.721 53.9205 186.607 53.9205C187.196 53.9205 187.734 53.8376 188.223 53.6719C188.712 53.5062 189.13 53.2576 189.478 52.9261C189.826 52.5947 190.092 52.1887 190.274 51.7081L195.171 52.0312C194.922 53.2079 194.413 54.2353 193.642 55.1136C192.88 55.9837 191.894 56.6631 190.684 57.152C189.482 57.6326 188.095 57.8729 186.52 57.8729ZM198.738 57.5V38.4091H203.871V41.7401H204.07C204.418 40.5552 205.002 39.6603 205.822 39.0554C206.643 38.4422 207.587 38.1357 208.656 38.1357C208.921 38.1357 209.207 38.1522 209.514 38.1854C209.82 38.2185 210.09 38.2641 210.322 38.3221V43.0202C210.073 42.9457 209.729 42.8794 209.29 42.8214C208.851 42.7634 208.449 42.7344 208.085 42.7344C207.306 42.7344 206.61 42.9042 205.996 43.244C205.392 43.5754 204.911 44.0394 204.555 44.636C204.207 45.2326 204.033 45.9203 204.033 46.6992V57.5H198.738ZM213.159 57.5V32.0455H218.54V53.0629H229.453V57.5H213.159ZM238.362 57.8604C237.143 57.8604 236.058 57.6491 235.105 57.2266C234.152 56.7957 233.398 56.1618 232.843 55.3249C232.296 54.4798 232.023 53.4274 232.023 52.168C232.023 51.1074 232.217 50.2166 232.607 49.4957C232.996 48.7749 233.527 48.1948 234.198 47.7557C234.869 47.3165 235.631 46.9851 236.485 46.7614C237.346 46.5376 238.25 46.3802 239.194 46.2891C240.305 46.1731 241.199 46.0653 241.879 45.9659C242.558 45.8582 243.051 45.7008 243.358 45.4936C243.665 45.2865 243.818 44.9799 243.818 44.5739V44.4993C243.818 43.7121 243.569 43.1031 243.072 42.6722C242.583 42.2414 241.887 42.0259 240.984 42.0259C240.031 42.0259 239.273 42.2372 238.71 42.6598C238.146 43.0741 237.773 43.5961 237.591 44.2259L232.694 43.8281C232.942 42.6681 233.431 41.6655 234.161 40.8203C234.89 39.9669 235.83 39.3123 236.982 38.8565C238.142 38.3925 239.484 38.1605 241.009 38.1605C242.069 38.1605 243.085 38.2848 244.054 38.5334C245.032 38.782 245.898 39.1673 246.652 39.6893C247.414 40.2113 248.015 40.8825 248.454 41.7028C248.893 42.5148 249.113 43.4884 249.113 44.6236V57.5H244.091V54.8526H243.942C243.636 55.4492 243.225 55.9754 242.712 56.4311C242.198 56.8786 241.581 57.2307 240.86 57.4876C240.139 57.7362 239.306 57.8604 238.362 57.8604ZM239.878 54.2063C240.657 54.2063 241.344 54.053 241.941 53.7464C242.538 53.4316 243.006 53.009 243.346 52.4787C243.685 51.9484 243.855 51.3477 243.855 50.6765V48.6506C243.689 48.7583 243.462 48.8577 243.172 48.9489C242.89 49.0317 242.571 49.1104 242.214 49.185C241.858 49.2513 241.502 49.3134 241.146 49.3714C240.789 49.4212 240.466 49.4667 240.176 49.5082C239.555 49.5993 239.012 49.7443 238.548 49.9432C238.084 50.142 237.723 50.4113 237.467 50.7511C237.21 51.0825 237.081 51.4968 237.081 51.994C237.081 52.7148 237.342 53.2659 237.864 53.647C238.395 54.0199 239.066 54.2063 239.878 54.2063ZM258.515 46.4631V57.5H253.22V38.4091H258.267V41.7773H258.49C258.913 40.667 259.621 39.7887 260.616 39.1424C261.61 38.4878 262.816 38.1605 264.232 38.1605C265.558 38.1605 266.714 38.4505 267.7 39.0305C268.686 39.6106 269.453 40.4392 269.999 41.5163C270.546 42.5852 270.82 43.8613 270.82 45.3445V57.5H265.525V46.2891C265.533 45.1207 265.235 44.2093 264.63 43.5547C264.025 42.8918 263.193 42.5604 262.132 42.5604C261.419 42.5604 260.79 42.7137 260.243 43.0202C259.704 43.3268 259.282 43.7743 258.975 44.3626C258.677 44.9426 258.523 45.6428 258.515 46.4631ZM282.028 57.8107C280.578 57.8107 279.264 57.4379 278.088 56.6921C276.919 55.9381 275.991 54.8319 275.304 53.3736C274.624 51.907 274.284 50.1089 274.284 47.9794C274.284 45.7919 274.637 43.9731 275.341 42.5231C276.045 41.0647 276.981 39.9751 278.15 39.2543C279.326 38.5251 280.615 38.1605 282.015 38.1605C283.084 38.1605 283.975 38.3428 284.687 38.7074C285.408 39.0637 285.988 39.5111 286.427 40.0497C286.875 40.58 287.215 41.102 287.447 41.6158H287.608V32.0455H292.891V57.5H287.67V54.4425H287.447C287.198 54.9728 286.846 55.4989 286.39 56.021C285.943 56.5347 285.359 56.9614 284.638 57.3011C283.925 57.6409 283.055 57.8107 282.028 57.8107ZM283.706 53.5973C284.559 53.5973 285.28 53.3653 285.868 52.9013C286.465 52.429 286.92 51.7702 287.235 50.9251C287.559 50.0799 287.72 49.0897 287.72 47.9545C287.72 46.8194 287.563 45.8333 287.248 44.9964C286.933 44.1596 286.477 43.5133 285.881 43.0575C285.284 42.6018 284.559 42.3739 283.706 42.3739C282.835 42.3739 282.102 42.6101 281.506 43.0824C280.909 43.5547 280.457 44.2093 280.151 45.0462C279.844 45.883 279.691 46.8525 279.691 47.9545C279.691 49.0649 279.844 50.0468 280.151 50.9002C280.466 51.7454 280.917 52.4083 281.506 52.8888C282.102 53.3612 282.835 53.5973 283.706 53.5973Z" fill="#3B3A5D"/>
<path d="M80.9999 22.7651L58.6696 0.5L0 60.2669H80.9999V22.7651Z" fill="#0A0B3B"/>
<path d="M80.9997 35.4516L58.6693 13.1865L11.4512 60.2668H80.9997V35.4516Z" fill="#FFBB50"/>
<path d="M57.8932 32.8506H51.5312V39.1939H57.8932V32.8506Z" fill="white"/>
<path d="M66.1647 32.8506H59.8027V39.1939H66.1647V32.8506Z" fill="white"/>
<path d="M57.8932 41.0977H51.5312V47.441H57.8932V41.0977Z" fill="white"/>
<path d="M66.1637 41.0977H59.8018V47.441H66.1637V41.0977Z" fill="white"/>
<path d="M32.1607 13.1865L32.4453 37.21L22.2982 37.2912L22.2662 13.1865L32.1607 13.1865Z" fill="#0A0B3B"/>
</svg>
